<?xml version="1.0" encoding="UTF-8" standalone="no"?>
<!DOCTYPE svg PUBLIC "-//W3C//DTD SVG 1.1//EN"
 "http://www.w3.org/Graphics/SVG/1.1/DTD/svg11.dtd">
<!-- Generated by graphviz version 14.1.5 (0)
 -->
<!-- Title: state transitions Pages: 1 -->
<svg width="447pt" height="122pt"
 viewBox="0.00 0.00 447.00 122.00" xmlns="http://www.w3.org/2000/svg" xmlns:xlink="http://www.w3.org/1999/xlink">
<g id="graph0" class="graph" transform="scale(1 1) rotate(0) translate(4 117.6)">
<title>state transitions</title>
<polygon fill="white" stroke="none" points="-4,4 -4,-117.6 442.95,-117.6 442.95,4 -4,4"/>
<!-- initial -->
<g id="node1" class="node state initial">
<title>initial</title>
<ellipse fill="black" stroke="black" stroke-width="2" cx="28" cy="-8.2" rx="5.4" ry="5.4"/>
</g>
<!-- inicio -->
<g id="node2" class="node state regular">
<title>inicio</title>
<polygon fill="#ffffff" fill-opacity="0.003922" stroke="none" stroke-width="2" points="56,-72.4 0,-72.4 0,-36 56,-36 56,-72.4"/>
<text xml:space="preserve" text-anchor="start" x="14.33" y="-49.4" font-family="Helvetica,sans-Serif" font-size="12.00">inicio</text>
<path fill="none" stroke="black" stroke-width="2" d="M12.47,-37C12.47,-37 43.53,-37 43.53,-37 49.27,-37 55,-42.73 55,-48.47 55,-48.47 55,-59.93 55,-59.93 55,-65.67 49.27,-71.4 43.53,-71.4 43.53,-71.4 12.47,-71.4 12.47,-71.4 6.73,-71.4 1,-65.67 1,-59.93 1,-59.93 1,-48.47 1,-48.47 1,-42.73 6.73,-37 12.47,-37"/>
</g>
<!-- local -->
<g id="node3" class="node state regular">
<title>local</title>
<polygon fill="#ffffff" fill-opacity="0.003922" stroke="none" stroke-width="2" points="186.34,-105.4 130.34,-105.4 130.34,-69 186.34,-69 186.34,-105.4"/>
<text xml:space="preserve" text-anchor="start" x="146" y="-82.4" font-family="Helvetica,sans-Serif" font-size="12.00">local</text>
<path fill="none" stroke="black" stroke-width="2" d="M142.81,-70C142.81,-70 173.88,-70 173.88,-70 179.61,-70 185.34,-75.73 185.34,-81.47 185.34,-81.47 185.34,-92.93 185.34,-92.93 185.34,-98.67 179.61,-104.4 173.88,-104.4 173.88,-104.4 142.81,-104.4 142.81,-104.4 137.08,-104.4 131.34,-98.67 131.34,-92.93 131.34,-92.93 131.34,-81.47 131.34,-81.47 131.34,-75.73 137.08,-70 142.81,-70"/>
</g>
<!-- inicio&#45;&gt;local -->
<g id="edge1" class="edge transition">
<title>inicio&#45;&gt;local</title>
<path fill="none" stroke="black" d="M43.16,-72.25C48.92,-78.18 56.08,-84.06 64,-87.2 81.42,-94.12 102.15,-94.78 119.65,-93.44"/>
<polygon fill="black" stroke="black" points="119.52,-96.97 129.11,-92.46 118.8,-90.01 119.52,-96.97"/>
<text xml:space="preserve" text-anchor="start" x="64" y="-97" font-family="Helvetica,sans-Serif" font-size="10.00">[a&#45;zA&#45;Z0&#45;9] &#160;&#160;</text>
</g>
<!-- local&#45;&gt;inicio -->
<g id="edge3" class="edge transition">
<title>local&#45;&gt;inicio</title>
<path fill="none" stroke="black" d="M130.43,-74.99C127.72,-73.97 125,-73.01 122.34,-72.2 104.53,-66.73 84.26,-62.59 67.18,-59.66"/>
<polygon fill="black" stroke="black" points="67.85,-56.22 57.42,-58.07 66.73,-63.13 67.85,-56.22"/>
<text xml:space="preserve" text-anchor="start" x="72.05" y="-75.2" font-family="Helvetica,sans-Serif" font-size="10.00">[invalid] &#160;&#160;</text>
</g>
<!-- dominio -->
<g id="node4" class="node state regular">
<title>dominio</title>
<polygon fill="#ffffff" fill-opacity="0.003922" stroke="none" stroke-width="2" points="308.61,-64.4 244.59,-64.4 244.59,-28 308.61,-28 308.61,-64.4"/>
<text xml:space="preserve" text-anchor="start" x="255.59" y="-41.4" font-family="Helvetica,sans-Serif" font-size="12.00">dominio</text>
<path fill="none" stroke="black" stroke-width="2" d="M257.05,-29C257.05,-29 296.14,-29 296.14,-29 301.88,-29 307.61,-34.73 307.61,-40.47 307.61,-40.47 307.61,-51.93 307.61,-51.93 307.61,-57.67 301.88,-63.4 296.14,-63.4 296.14,-63.4 257.05,-63.4 257.05,-63.4 251.32,-63.4 245.59,-57.67 245.59,-51.93 245.59,-51.93 245.59,-40.47 245.59,-40.47 245.59,-34.73 251.32,-29 257.05,-29"/>
</g>
<!-- local&#45;&gt;dominio -->
<g id="edge2" class="edge transition">
<title>local&#45;&gt;dominio</title>
<path fill="none" stroke="black" d="M186.31,-77.69C200.48,-72.69 218.15,-66.46 234.03,-60.86"/>
<polygon fill="black" stroke="black" points="234.98,-64.24 243.25,-57.61 232.65,-57.64 234.98,-64.24"/>
<text xml:space="preserve" text-anchor="start" x="206.22" y="-76.94" font-family="Helvetica,sans-Serif" font-size="10.00">@ &#160;&#160;</text>
</g>
<!-- dominio&#45;&gt;inicio -->
<g id="edge6" class="edge transition">
<title>dominio&#45;&gt;inicio</title>
<path fill="none" stroke="black" d="M244.7,-45.5C215.28,-44.99 169.78,-44.65 130.34,-46.2 109.31,-47.03 85.89,-48.82 66.86,-50.5"/>
<polygon fill="black" stroke="black" points="66.79,-46.99 57.15,-51.38 67.42,-53.96 66.79,-46.99"/>
<text xml:space="preserve" text-anchor="start" x="137.22" y="-49.2" font-family="Helvetica,sans-Serif" font-size="10.00">[invalid] &#160;&#160;</text>
</g>
<!-- dominio&#45;&gt;dominio -->
<g id="edge5" class="edge transition">
<title>dominio&#45;&gt;dominio</title>
<path fill="none" stroke="black" d="M265.94,-64.39C263.38,-75.67 266.93,-86.4 276.6,-86.4 282.79,-86.4 286.48,-82 287.65,-75.86"/>
<polygon fill="black" stroke="black" points="291.15,-75.78 287.3,-65.9 284.15,-76.02 291.15,-75.78"/>
<text xml:space="preserve" text-anchor="start" x="244.37" y="-89.4" font-family="Helvetica,sans-Serif" font-size="10.00">[a&#45;zA&#45;Z0&#45;9.&#45;] &#160;&#160;</text>
</g>
<!-- tld -->
<g id="node5" class="node state regular">
<title>tld</title>
<polygon fill="#ffffff" fill-opacity="0.003922" stroke="none" stroke-width="2" points="438.95,-36.4 382.95,-36.4 382.95,0 438.95,0 438.95,-36.4"/>
<text xml:space="preserve" text-anchor="start" x="404.62" y="-13.4" font-family="Helvetica,sans-Serif" font-size="12.00">tld</text>
<path fill="none" stroke="black" stroke-width="2" d="M395.42,-1C395.42,-1 426.49,-1 426.49,-1 432.22,-1 437.95,-6.73 437.95,-12.47 437.95,-12.47 437.95,-23.93 437.95,-23.93 437.95,-29.67 432.22,-35.4 426.49,-35.4 426.49,-35.4 395.42,-35.4 395.42,-35.4 389.69,-35.4 383.95,-29.67 383.95,-23.93 383.95,-23.93 383.95,-12.47 383.95,-12.47 383.95,-6.73 389.69,-1 395.42,-1"/>
</g>
<!-- dominio&#45;&gt;tld -->
<g id="edge4" class="edge transition">
<title>dominio&#45;&gt;tld</title>
<path fill="none" stroke="black" d="M308.18,-43.1C325.1,-41.04 346.68,-37.85 371.94,-31.67"/>
<polygon fill="black" stroke="black" points="372.71,-35.09 381.53,-29.21 370.97,-28.31 372.71,-35.09"/>
<text xml:space="preserve" text-anchor="start" x="340.23" y="-44.91" font-family="Helvetica,sans-Serif" font-size="10.00">. &#160;&#160;</text>
</g>
<!-- tld&#45;&gt;inicio -->
<g id="edge8" class="edge transition">
<title>tld&#45;&gt;inicio</title>
<path fill="none" stroke="black" d="M383.05,-7.99C380.35,-7.26 377.62,-6.64 374.95,-6.2 349.38,-1.94 342.48,-4.42 316.61,-6.2 207.18,-13.74 175.91,-13.55 67.08,-40.72"/>
<polygon fill="black" stroke="black" points="66.26,-37.32 57.42,-43.16 67.97,-44.11 66.26,-37.32"/>
<text xml:space="preserve" text-anchor="start" x="194.34" y="-18.48" font-family="Helvetica,sans-Serif" font-size="10.00">[invalid] &#160;&#160;</text>
</g>
<!-- tld&#45;&gt;dominio -->
<g id="edge7" class="edge transition">
<title>tld&#45;&gt;dominio</title>
<path fill="none" stroke="black" d="M383.06,-12.84C364,-10.18 338.09,-8.89 316.61,-16.2 312.66,-17.54 308.79,-19.47 305.12,-21.7"/>
<polygon fill="black" stroke="black" points="303.36,-18.67 297.19,-27.28 307.38,-24.39 303.36,-18.67"/>
<text xml:space="preserve" text-anchor="start" x="316.61" y="-19.2" font-family="Helvetica,sans-Serif" font-size="10.00">[a&#45;zA&#45;Z0&#45;9] &#160;&#160;</text>
</g>
<!-- final -->
<g id="node6" class="node state final">
<title>final</title>
<ellipse fill="black" stroke="black" stroke-width="2" cx="28" cy="-104.2" rx="5.4" ry="5.4"/>
<ellipse fill="none" stroke="black" stroke-width="2" cx="28" cy="-104.2" rx="9.4" ry="9.4"/>
</g>
</g>
</svg>
