<?xml version="1.0" encoding="UTF-8" standalone="no"?>
<!DOCTYPE svg PUBLIC "-//W3C//DTD SVG 1.1//EN"
 "http://www.w3.org/Graphics/SVG/1.1/DTD/svg11.dtd">
<!-- Generated by graphviz version 14.1.5 (0)
 -->
<!-- Title: state transitions Pages: 1 -->
<svg width="129pt" height="323pt"
 viewBox="0.00 0.00 129.00 323.00" xmlns="http://www.w3.org/2000/svg" xmlns:xlink="http://www.w3.org/1999/xlink">
<g id="graph0" class="graph" transform="scale(1 1) rotate(0) translate(4 319.2)">
<title>state transitions</title>
<polygon fill="white" stroke="none" points="-4,4 -4,-319.2 124.92,-319.2 124.92,4 -4,4"/>
<!-- initial -->
<g id="node1" class="node state initial">
<title>initial</title>
<ellipse fill="black" stroke="black" stroke-width="2" cx="35.35" cy="-309.8" rx="5.4" ry="5.4"/>
</g>
<!-- q0 -->
<g id="node2" class="node state regular">
<title>q0</title>
<polygon fill="#ffffff" fill-opacity="0.003922" stroke="none" stroke-width="2" points="63.35,-276.4 7.35,-276.4 7.35,-240 63.35,-240 63.35,-276.4"/>
<text xml:space="preserve" text-anchor="start" x="28.67" y="-253.4" font-family="Helvetica,sans-Serif" font-size="12.00">q0</text>
<path fill="none" stroke="black" stroke-width="2" d="M19.82,-241C19.82,-241 50.88,-241 50.88,-241 56.62,-241 62.35,-246.73 62.35,-252.47 62.35,-252.47 62.35,-263.93 62.35,-263.93 62.35,-269.67 56.62,-275.4 50.88,-275.4 50.88,-275.4 19.82,-275.4 19.82,-275.4 14.08,-275.4 8.35,-269.67 8.35,-263.93 8.35,-263.93 8.35,-252.47 8.35,-252.47 8.35,-246.73 14.08,-241 19.82,-241"/>
</g>
<!-- initial&#45;&gt;q0 -->
<g id="edge1" class="edge transition">
<title>initial&#45;&gt;q0</title>
<path fill="none" stroke="black" d="M35.35,-303.49C35.35,-299.43 35.35,-293.49 35.35,-287.26"/>
<polygon fill="black" stroke="black" points="38.85,-287.62 35.35,-277.62 31.85,-287.62 38.85,-287.62"/>
<text xml:space="preserve" text-anchor="start" x="35.35" y="-287.4" font-family="Helvetica,sans-Serif" font-size="10.00"> &#160;&#160;&#160;</text>
</g>
<!-- qlocal -->
<g id="node3" class="node state regular">
<title>qlocal</title>
<polygon fill="#ffffff" fill-opacity="0.003922" stroke="none" stroke-width="2" points="63.35,-212 7.35,-212 7.35,-175.6 63.35,-175.6 63.35,-212"/>
<text xml:space="preserve" text-anchor="start" x="19.67" y="-189" font-family="Helvetica,sans-Serif" font-size="12.00">qlocal</text>
<path fill="none" stroke="black" stroke-width="2" d="M19.82,-176.6C19.82,-176.6 50.88,-176.6 50.88,-176.6 56.62,-176.6 62.35,-182.33 62.35,-188.07 62.35,-188.07 62.35,-199.53 62.35,-199.53 62.35,-205.27 56.62,-211 50.88,-211 50.88,-211 19.82,-211 19.82,-211 14.08,-211 8.35,-205.27 8.35,-199.53 8.35,-199.53 8.35,-188.07 8.35,-188.07 8.35,-182.33 14.08,-176.6 19.82,-176.6"/>
</g>
<!-- q0&#45;&gt;qlocal -->
<g id="edge2" class="edge transition">
<title>q0&#45;&gt;qlocal</title>
<path fill="none" stroke="black" d="M35.35,-240.15C35.35,-234.92 35.35,-229.02 35.35,-223.25"/>
<polygon fill="black" stroke="black" points="38.85,-223.34 35.35,-213.34 31.85,-223.34 38.85,-223.34"/>
<text xml:space="preserve" text-anchor="start" x="35.35" y="-223" font-family="Helvetica,sans-Serif" font-size="10.00">alnum &#160;&#160;</text>
</g>
<!-- qlocal&#45;&gt;qlocal -->
<g id="edge4" class="edge transition">
<title>qlocal&#45;&gt;qlocal</title>
<path fill="none" stroke="black" d="M63.11,-199.77C75.09,-200.25 85.35,-198.27 85.35,-193.8 85.35,-190.87 80.93,-189.01 74.51,-188.21"/>
<polygon fill="black" stroke="black" points="74.74,-184.71 64.63,-187.88 74.51,-191.71 74.74,-184.71"/>
<text xml:space="preserve" text-anchor="start" x="85.35" y="-190.8" font-family="Helvetica,sans-Serif" font-size="10.00">alnum &#160;&#160;</text>
</g>
<!-- qdominio -->
<g id="node4" class="node state regular">
<title>qdominio</title>
<polygon fill="#ffffff" fill-opacity="0.003922" stroke="none" stroke-width="2" points="70.7,-147.6 0,-147.6 0,-111.2 70.7,-111.2 70.7,-147.6"/>
<text xml:space="preserve" text-anchor="start" x="11" y="-124.6" font-family="Helvetica,sans-Serif" font-size="12.00">qdominio</text>
<path fill="none" stroke="black" stroke-width="2" d="M12.47,-112.2C12.47,-112.2 58.23,-112.2 58.23,-112.2 63.96,-112.2 69.7,-117.93 69.7,-123.67 69.7,-123.67 69.7,-135.13 69.7,-135.13 69.7,-140.87 63.96,-146.6 58.23,-146.6 58.23,-146.6 12.47,-146.6 12.47,-146.6 6.73,-146.6 1,-140.87 1,-135.13 1,-135.13 1,-123.67 1,-123.67 1,-117.93 6.73,-112.2 12.47,-112.2"/>
</g>
<!-- qlocal&#45;&gt;qdominio -->
<g id="edge3" class="edge transition">
<title>qlocal&#45;&gt;qdominio</title>
<path fill="none" stroke="black" d="M35.35,-175.75C35.35,-170.52 35.35,-164.62 35.35,-158.85"/>
<polygon fill="black" stroke="black" points="38.85,-158.94 35.35,-148.94 31.85,-158.94 38.85,-158.94"/>
<text xml:space="preserve" text-anchor="start" x="35.35" y="-158.6" font-family="Helvetica,sans-Serif" font-size="10.00">@ &#160;&#160;</text>
</g>
<!-- qdominio&#45;&gt;qdominio -->
<g id="edge5" class="edge transition">
<title>qdominio&#45;&gt;qdominio</title>
<path fill="none" stroke="black" d="M70.63,-135.44C82.84,-135.5 92.7,-133.49 92.7,-129.4 92.7,-126.72 88.45,-124.93 82.08,-124.03"/>
<polygon fill="black" stroke="black" points="82.33,-120.54 72.14,-123.45 81.92,-127.53 82.33,-120.54"/>
<text xml:space="preserve" text-anchor="start" x="92.7" y="-126.4" font-family="Helvetica,sans-Serif" font-size="10.00">. &#160;&#160;</text>
</g>
<!-- qtld -->
<g id="node5" class="node state regular">
<title>qtld</title>
<polygon fill="#ffffff" fill-opacity="0.003922" stroke="none" stroke-width="2" points="63.35,-83.2 7.35,-83.2 7.35,-46.8 63.35,-46.8 63.35,-83.2"/>
<text xml:space="preserve" text-anchor="start" x="25.67" y="-60.2" font-family="Helvetica,sans-Serif" font-size="12.00">qtld</text>
<path fill="none" stroke="black" stroke-width="2" d="M19.82,-47.8C19.82,-47.8 50.88,-47.8 50.88,-47.8 56.62,-47.8 62.35,-53.53 62.35,-59.27 62.35,-59.27 62.35,-70.73 62.35,-70.73 62.35,-76.47 56.62,-82.2 50.88,-82.2 50.88,-82.2 19.82,-82.2 19.82,-82.2 14.08,-82.2 8.35,-76.47 8.35,-70.73 8.35,-70.73 8.35,-59.27 8.35,-59.27 8.35,-53.53 14.08,-47.8 19.82,-47.8"/>
</g>
<!-- qdominio&#45;&gt;qtld -->
<g id="edge6" class="edge transition">
<title>qdominio&#45;&gt;qtld</title>
<path fill="none" stroke="black" d="M20.19,-111.34C18.58,-108.76 17.18,-106.01 16.24,-103.2 15.15,-99.96 14.75,-98.02 16.1,-93.58"/>
<polygon fill="black" stroke="black" points="19.28,-95.06 19.64,-84.47 12.76,-92.52 19.28,-95.06"/>
<text xml:space="preserve" text-anchor="start" x="16.24" y="-94.2" font-family="Helvetica,sans-Serif" font-size="10.00">. &#160;&#160;</text>
</g>
<!-- qtld&#45;&gt;qdominio -->
<g id="edge7" class="edge transition">
<title>qtld&#45;&gt;qdominio</title>
<path fill="none" stroke="black" d="M35.35,-83.03C35.35,-88.26 35.35,-94.16 35.35,-99.93"/>
<polygon fill="black" stroke="black" points="31.85,-99.84 35.35,-109.84 38.85,-99.84 31.85,-99.84"/>
<text xml:space="preserve" text-anchor="start" x="35.35" y="-94.2" font-family="Helvetica,sans-Serif" font-size="10.00">alnum &#160;&#160;</text>
</g>
<!-- final -->
<g id="node6" class="node state final">
<title>final</title>
<ellipse fill="black" stroke="black" stroke-width="2" cx="35.35" cy="-9.4" rx="5.4" ry="5.4"/>
<ellipse fill="none" stroke="black" stroke-width="2" cx="35.35" cy="-9.4" rx="9.4" ry="9.4"/>
</g>
<!-- qtld&#45;&gt;final -->
<g id="edge8" class="edge transition">
<title>qtld&#45;&gt;final</title>
<path fill="none" stroke="black" d="M35.35,-47.04C35.35,-41.93 35.35,-36.27 35.35,-30.96"/>
<polygon fill="black" stroke="black" points="38.85,-31.13 35.35,-21.13 31.85,-31.13 38.85,-31.13"/>
<text xml:space="preserve" text-anchor="start" x="35.35" y="-29.8" font-family="Helvetica,sans-Serif" font-size="10.00">. &#160;&#160;</text>
</g>
</g>
</svg>
